<svg height="512pt" viewBox="0 0 512 512" width="512pt" xmlns="http://www.w3.org/2000/svg" xmlns:xlink="http://www.w3.org/1999/xlink"><linearGradient id="a" gradientUnits="userSpaceOnUse" x1="0" x2="512" y1="256" y2="256"><stop offset="0" stop-color="#00f1ff"/><stop offset=".231" stop-color="#00d8ff"/><stop offset=".5138" stop-color="#00c0ff"/><stop offset=".7773" stop-color="#00b2ff"/><stop offset="1" stop-color="#00adff"/></linearGradient><path d="m512 256c0 141.386719-114.613281 256-256 256s-256-114.613281-256-256 114.613281-256 256-256 256 114.613281 256 256zm0 0" fill="url(#a)"/><path d="m391.542969 276.21875v-53.09375c0-8.285156-6.71875-15-15-15-10.613281 0-19.246094-8.636719-19.246094-19.246094s8.636719-19.246094 19.246094-19.246094 19.246093 8.636719 19.246093 19.246094c0 8.285156 6.714844 15 15 15 8.28125 0 15-6.714844 15-15 0-27.152344-22.09375-49.246094-49.246093-49.246094-14.019531 0-26.679688 5.898438-35.65625 15.332032l-36.105469-19.6875c.296875-2.179688.464844-4.40625.464844-6.667969 0-27.15625-22.089844-49.246094-49.246094-49.246094-27.152344 0-49.242188 22.089844-49.242188 49.246094 0 2.25.164063 4.464844.457032 6.632813l-36.199219 19.621093c-8.96875-9.375-21.589844-15.230469-35.558594-15.230469-27.152343 0-49.242187 22.09375-49.242187 49.246094 0 21.417969 13.746094 39.671875 32.875 46.4375v41.367188c-19.128906 6.765625-32.875 25.019531-32.875 46.4375 0 27.152344 22.089844 49.246094 49.242187 49.246094 13.949219 0 26.550781-5.839844 35.519531-15.1875l36.207032 19.828124c-.273438 2.089844-.425782 4.21875-.425782 6.382813 0 27.15625 22.089844 49.246094 49.242188 49.246094 8.285156 0 15-6.714844 15-15 0-8.285157-6.714844-15-15-15-10.609375 0-19.242188-8.632813-19.242188-19.246094 0-10.609375 8.632813-19.242187 19.242188-19.242187 10.613281 0 19.246094 8.632812 19.246094 19.242187 0 8.285156 6.714844 15 15 15s15-6.714844 15-15c0-2.296875-.171875-4.558594-.476563-6.777344l35.792969-19.917969c8.996094 9.632813 21.792969 15.671876 35.980469 15.671876 8.285156 0 15-6.71875 15-15 0-8.285157-6.714844-15-15-15-10.609375 0-19.242188-8.636719-19.242188-19.246094s8.632813-19.246094 19.242188-19.246094c10.613281 0 19.246093 8.636719 19.246093 19.246094 0 8.285156 6.714844 15 15 15 8.285157 0 15-6.714844 15-15 0-21.925782-14.40625-40.542969-34.246093-46.902344zm-63.753907-94.226562c-.316406 2.253906-.492187 4.546874-.492187 6.886718 0 3.757813.4375 7.417969 1.238281 10.9375l-57.535156 30.550782v-54.855469c8.023438-2.574219 15.148438-7.152344 20.800781-13.140625zm-160.609374 103.5c-5.21875-4.402344-11.363282-7.742188-18.09375-9.683594v-39.617188c7.160156-2.066406 13.652343-5.710937 19.074218-10.535156l55.855469 29.65625zm88.820312-176.128907c10.609375 0 19.246094 8.632813 19.246094 19.246094 0 10.609375-8.636719 19.242187-19.246094 19.242187s-19.246094-8.632812-19.246094-19.242187c0-10.613281 8.636719-19.246094 19.246094-19.246094zm-35.828125 52.980469c5.65625 6.003906 12.792969 10.589844 20.828125 13.167969v54.855469l-57.535156-30.550782c.800781-3.519531 1.238281-7.175781 1.238281-10.9375 0-2.390625-.179687-4.738281-.511719-7.035156zm-84.714844 7.289062c10.609375 0 19.246094 8.636719 19.246094 19.246094s-8.636719 19.246094-19.246094 19.246094-19.246093-8.636719-19.246093-19.246094 8.636718-19.246094 19.246093-19.246094zm0 172.730469c-10.609375 0-19.246093-8.632812-19.246093-19.242187 0-10.613282 8.636718-19.246094 19.246093-19.246094s19.246094 8.632812 19.246094 19.246094c0 10.609375-8.636719 19.242187-19.246094 19.242187zm84.554688 7.464844-35.828125-19.621094c.335937-2.316406.519531-4.679687.519531-7.085937 0-4.195313-.53125-8.265625-1.523437-12.15625l57.820312-30.703125v56.226562c-8.109375 2.601563-15.308594 7.25-20.988281 13.339844zm71.707031-.285156c-5.640625-5.945313-12.734375-10.492188-20.71875-13.054688v-56.226562l57.820312 30.703125c-.992187 3.890625-1.523437 7.960937-1.523437 12.15625 0 2.164062.15625 4.292968.429687 6.382812zm53.101562-64.050781-56.835937-30.175782 55.855469-29.660156c5.074218 4.519531 11.085937 8.003906 17.703125 10.125v40.4375c-6.195313 1.984375-11.859375 5.167969-16.722657 9.273438zm0 0" fill="#fff"/></svg>